<svg xmlns="http://www.w3.org/2000/svg"  viewBox="0 0 50 50" width="24px" height="24px"><path d="M 23 0 C 15.773438 0 10.445313 2.496094 7 6.40625 C 3.554688 10.316406 2 15.558594 2 21 C 2 25.40625 3.375 29.515625 5.6875 32.875 C 7.78125 35.921875 9 39.507813 9 43.1875 L 9 50 L 11 50 L 11 43.1875 C 11 39.101563 9.640625 35.144531 7.375 31.8125 L 7.3125 31.71875 C 5.222656 28.679688 4 24.992188 4 21 C 4 15.941406 5.445313 11.183594 8.5 7.71875 C 11.554688 4.253906 16.226563 2 23 2 C 29.800781 2 34.214844 3.972656 37.125 7 C 40.035156 10.027344 41.464844 14.207031 42 18.71875 L 42.03125 18.9375 L 42.125 19.09375 L 46.84375 27.1875 L 46.8125 27.1875 C 47.0625 27.636719 46.9375 28.070313 46.5 28.3125 L 46.5 28.34375 L 42 30.59375 L 42 36.59375 C 42 40.335938 38.914063 43.253906 35.1875 42.90625 L 35.15625 42.90625 L 32.0625 42.6875 L 31 42.625 L 31 50 L 33 50 L 33 44.75 L 35 44.90625 C 35.011719 44.90625 35.019531 44.90625 35.03125 44.90625 C 39.890625 45.339844 44 41.441406 44 36.59375 L 44 31.8125 L 47.4375 30.09375 L 47.46875 30.09375 L 47.5 30.0625 C 48.863281 29.304688 49.3125 27.570313 48.5625 26.21875 L 48.5625 26.1875 L 43.9375 18.1875 C 43.34375 13.503906 41.808594 9.003906 38.5625 5.625 C 35.246094 2.175781 30.199219 0 23 0 Z M 19.65625 6 L 19.5 6.84375 L 19 9.8125 C 18.535156 9.953125 18.085938 10.148438 17.65625 10.375 L 15.1875 8.59375 L 14.5 8.09375 L 13.90625 8.6875 L 11.78125 10.78125 L 11.1875 11.40625 L 11.6875 12.09375 L 13.46875 14.5625 C 13.257813 14.96875 13.070313 15.417969 12.90625 15.90625 L 9.8125 16.53125 L 9 16.6875 L 9 21.34375 L 9.84375 21.5 L 12.8125 22 C 12.976563 22.488281 13.164063 22.9375 13.375 23.34375 L 11.59375 25.8125 L 11.09375 26.5 L 11.6875 27.09375 L 13.78125 29.21875 L 14.40625 29.8125 L 15.09375 29.3125 L 17.5625 27.53125 C 17.96875 27.742188 18.417969 27.929688 18.90625 28.09375 L 19.40625 31.0625 L 19.5625 31.90625 L 24.25 31.90625 L 24.375 31.0625 L 24.90625 28 C 25.375 27.832031 25.824219 27.648438 26.25 27.4375 L 28.8125 29.21875 L 29.5 29.6875 L 30.09375 29.09375 L 32.21875 27 L 32.8125 26.40625 L 32.3125 25.71875 L 30.53125 23.25 C 30.738281 22.851563 30.929688 22.414063 31.09375 21.9375 L 34.125 21.5 L 35 21.375 L 35 16.65625 L 34.15625 16.5 L 31.09375 16 C 30.949219 15.546875 30.765625 15.085938 30.53125 14.625 L 32.3125 12.0625 L 32.8125 11.375 L 32.21875 10.78125 L 30.09375 8.6875 L 29.5 8.09375 L 28.8125 8.59375 L 26.34375 10.375 C 25.9375 10.164063 25.488281 9.976563 25 9.8125 L 24.5 6.84375 L 24.34375 6 Z M 21.34375 8 L 22.65625 8 L 23.125 10.65625 L 23.21875 11.34375 L 23.875 11.46875 C 24.621094 11.632813 25.335938 11.996094 26 12.375 L 26.5625 12.6875 L 27.09375 12.3125 L 29.3125 10.71875 L 30.1875 11.625 L 28.59375 13.9375 L 28.1875 14.46875 L 28.5625 15.03125 C 29 15.730469 29.257813 16.433594 29.4375 17.15625 L 29.59375 17.78125 L 30.25 17.875 L 33 18.34375 L 33 19.625 L 29.5625 20.09375 L 29.4375 20.78125 C 29.273438 21.527344 28.910156 22.242188 28.53125 22.90625 L 28.21875 23.46875 L 28.59375 24 L 30.1875 26.1875 L 29.28125 27.09375 L 26.96875 25.46875 L 26.5 25.125 L 25.9375 25.40625 C 25.136719 25.804688 24.398438 26.183594 23.75 26.34375 L 23.125 26.5 L 23 27.125 L 22.53125 29.90625 L 21.25 29.90625 L 20.78125 27.21875 L 20.6875 26.5625 L 20.03125 26.4375 C 19.285156 26.273438 18.570313 25.910156 17.90625 25.53125 L 17.34375 25.21875 L 16.8125 25.59375 L 14.625 27.1875 L 13.71875 26.3125 L 15.3125 24.09375 L 15.6875 23.5625 L 15.375 23 C 14.996094 22.335938 14.632813 21.621094 14.46875 20.875 L 14.34375 20.21875 L 13.65625 20.125 L 11 19.65625 L 11 18.3125 L 13.78125 17.78125 L 14.4375 17.65625 L 14.5625 17.03125 C 14.726563 16.285156 15.089844 15.570313 15.46875 14.90625 L 15.78125 14.34375 L 15.40625 13.8125 L 13.8125 11.625 L 14.6875 10.71875 L 16.90625 12.3125 L 17.5 12.71875 L 18.09375 12.3125 C 18.65625 11.910156 19.308594 11.648438 20.125 11.46875 L 20.78125 11.34375 L 20.875 10.65625 Z M 22 14 C 19.253906 14 17 16.253906 17 19 C 17 21.746094 19.253906 24 22 24 C 24.746094 24 27 21.746094 27 19 C 27 16.253906 24.746094 14 22 14 Z M 22 16 C 23.65625 16 25 17.34375 25 19 C 25 20.65625 23.65625 22 22 22 C 20.34375 22 19 20.65625 19 19 C 19 17.34375 20.34375 16 22 16 Z"/></svg>